<mxfile host="65bd71144e">
    <diagram id="04tZnPdtuaadIbHhMt9Q" name="Page-1">
        <mxGraphModel dx="640" dy="540" grid="1" gridSize="10" guides="1" tooltips="1" connect="1" arrows="1" fold="1" page="1" pageScale="1" pageWidth="850" pageHeight="1100" math="0" shadow="0">
            <root>
                <mxCell id="0"/>
                <mxCell id="1" parent="0"/>
                <object placeholders="1" c4Name="Delivery de comida" c4Type="SystemScopeBoundary" c4Application="Sistema" label="&lt;font style=&quot;font-size: 12px;&quot;&gt;&lt;span style=&quot;font-size: 12px;&quot;&gt;&lt;div style=&quot;text-align: left; font-size: 12px;&quot;&gt;%c4Name%&lt;/div&gt;&lt;/span&gt;&lt;/font&gt;&lt;div style=&quot;text-align: left; font-size: 12px;&quot;&gt;[%c4Application%]&lt;/div&gt;" id="2">
                    <mxCell style="rounded=1;fontSize=12;whiteSpace=wrap;html=1;arcSize=20;fillColor=none;strokeColor=#006EAF;fontColor=#036aa8;labelBackgroundColor=none;align=left;verticalAlign=bottom;labelBorderColor=none;spacingTop=0;spacing=10;metaEdit=1;rotatable=0;perimeter=rectanglePerimeter;labelPadding=0;allowArrows=0;connectable=0;expand=0;recursiveResize=0;editable=1;pointerEvents=0;absoluteArcSize=1;points=[[0.25,0,0],[0.5,0,0],[0.75,0,0],[1,0.25,0],[1,0.5,0],[1,0.75,0],[0.75,1,0],[0.5,1,0],[0.25,1,0],[0,0.75,0],[0,0.5,0],[0,0.25,0]];fontStyle=0" parent="1" vertex="1">
                        <mxGeometry x="120" y="80" width="320" height="350" as="geometry"/>
                    </mxCell>
                </object>
                <mxCell id="3" value="" style="edgeStyle=none;html=1;endArrow=none;endFill=0;exitX=0.5;exitY=0.5;exitDx=0;exitDy=0;exitPerimeter=0;fillColor=#1ba1e2;strokeColor=#006EAF;" parent="1" source="4" target="6" edge="1">
                    <mxGeometry relative="1" as="geometry"/>
                </mxCell>
                <mxCell id="4" value="Cliente" style="shape=umlActor;verticalLabelPosition=bottom;verticalAlign=top;html=1;fillColor=#1ba1e2;fontColor=#006eaf;strokeColor=#006EAF;" parent="1" vertex="1">
                    <mxGeometry x="60" y="150" width="30" height="60" as="geometry"/>
                </mxCell>
                <mxCell id="5" value="" style="edgeStyle=none;html=1;endArrow=none;endFill=0;entryX=0.5;entryY=0.5;entryDx=0;entryDy=0;entryPerimeter=0;fillColor=#1ba1e2;strokeColor=#006EAF;" parent="1" source="6" target="7" edge="1">
                    <mxGeometry relative="1" as="geometry"/>
                </mxCell>
                <mxCell id="6" value="Hacer pedido al restaurante" style="ellipse;whiteSpace=wrap;html=1;fillColor=#1ba1e2;fontColor=#ffffff;strokeColor=#006EAF;" parent="1" vertex="1">
                    <mxGeometry x="210" y="90" width="140" height="70" as="geometry"/>
                </mxCell>
                <mxCell id="7" value="Restaurante" style="shape=umlActor;verticalLabelPosition=bottom;verticalAlign=top;html=1;fillColor=#1ba1e2;fontColor=#006eaf;strokeColor=#006EAF;" parent="1" vertex="1">
                    <mxGeometry x="470" y="95" width="30" height="60" as="geometry"/>
                </mxCell>
                <mxCell id="9" value="Pagar el pedido&lt;br&gt;&amp;nbsp;&lt;br&gt;&amp;nbsp;" style="ellipse;whiteSpace=wrap;html=1;fillColor=#1ba1e2;fontColor=#ffffff;strokeColor=#006EAF;" parent="1" vertex="1">
                    <mxGeometry x="210" y="200" width="140" height="70" as="geometry"/>
                </mxCell>
                <mxCell id="11" value="Pagar con&lt;br&gt;transferencia&lt;br&gt;bancaria" style="ellipse;whiteSpace=wrap;html=1;fillColor=#1ba1e2;fontColor=#ffffff;strokeColor=#006EAF;" parent="1" vertex="1">
                    <mxGeometry x="290" y="310" width="140" height="70" as="geometry"/>
                </mxCell>
                <mxCell id="12" value="Pagar con tarjeta de débito" style="ellipse;whiteSpace=wrap;html=1;fillColor=#1ba1e2;fontColor=#ffffff;strokeColor=#006EAF;" parent="1" vertex="1">
                    <mxGeometry x="130" y="310" width="140" height="70" as="geometry"/>
                </mxCell>
                <mxCell id="16" value="" style="edgeStyle=none;html=1;endArrow=none;endFill=0;exitX=0.5;exitY=0.5;exitDx=0;exitDy=0;exitPerimeter=0;fillColor=#1ba1e2;strokeColor=#006EAF;" parent="1" source="4" target="9" edge="1">
                    <mxGeometry relative="1" as="geometry">
                        <mxPoint x="140" y="130.4545454545455" as="sourcePoint"/>
                        <mxPoint x="220.12820523581865" y="132.88267288593386" as="targetPoint"/>
                    </mxGeometry>
                </mxCell>
                <mxCell id="18" value="" style="endArrow=open;endSize=12;dashed=1;html=1;fontColor=#006EAF;fillColor=#1ba1e2;strokeColor=#006EAF;" parent="1" source="6" target="9" edge="1">
                    <mxGeometry width="160" relative="1" as="geometry">
                        <mxPoint x="250" y="280" as="sourcePoint"/>
                        <mxPoint x="410" y="280" as="targetPoint"/>
                    </mxGeometry>
                </mxCell>
                <mxCell id="19" value="≪includes≫" style="edgeLabel;html=1;align=center;verticalAlign=middle;resizable=0;points=[];fontColor=#006EAF;labelBackgroundColor=none;" parent="18" vertex="1" connectable="0">
                    <mxGeometry x="0.2875" relative="1" as="geometry">
                        <mxPoint y="-11" as="offset"/>
                    </mxGeometry>
                </mxCell>
                <mxCell id="20" value="" style="line;strokeWidth=1;html=1;fillColor=#000000;fontColor=#ffffff;strokeColor=#FFFFFF;" parent="1" vertex="1">
                    <mxGeometry x="225" y="227" width="110" height="10" as="geometry"/>
                </mxCell>
                <mxCell id="22" value="extension point&lt;br&gt;Forma de pago" style="text;html=1;strokeColor=none;fillColor=none;align=center;verticalAlign=middle;whiteSpace=wrap;rounded=0;strokeWidth=1;fontColor=#ffffff;" parent="1" vertex="1">
                    <mxGeometry x="230" y="233" width="100" height="30" as="geometry"/>
                </mxCell>
                <mxCell id="23" value="" style="endArrow=open;endSize=12;dashed=1;html=1;fillColor=#1ba1e2;strokeColor=#006EAF;" parent="1" source="11" target="9" edge="1">
                    <mxGeometry width="160" relative="1" as="geometry">
                        <mxPoint x="290" y="170" as="sourcePoint"/>
                        <mxPoint x="290" y="210" as="targetPoint"/>
                    </mxGeometry>
                </mxCell>
                <mxCell id="24" value="≪extends≫" style="edgeLabel;html=1;align=center;verticalAlign=middle;resizable=0;points=[];fontColor=#006EAF;labelBackgroundColor=none;" parent="23" vertex="1" connectable="0">
                    <mxGeometry x="0.2875" relative="1" as="geometry">
                        <mxPoint x="43" y="9" as="offset"/>
                    </mxGeometry>
                </mxCell>
                <mxCell id="26" value="" style="endArrow=open;endSize=12;dashed=1;html=1;fillColor=#1ba1e2;strokeColor=#006EAF;" parent="1" source="12" target="9" edge="1">
                    <mxGeometry width="160" relative="1" as="geometry">
                        <mxPoint x="346.02864083663906" y="322.1162124297483" as="sourcePoint"/>
                        <mxPoint x="313.9220144160662" y="277.89276982209105" as="targetPoint"/>
                    </mxGeometry>
                </mxCell>
                <mxCell id="27" value="≪extends≫" style="edgeLabel;html=1;align=center;verticalAlign=middle;resizable=0;points=[];fontColor=#006EAF;labelBackgroundColor=none;" parent="26" vertex="1" connectable="0">
                    <mxGeometry x="0.2875" relative="1" as="geometry">
                        <mxPoint x="-45" y="9" as="offset"/>
                    </mxGeometry>
                </mxCell>
            </root>
        </mxGraphModel>
    </diagram>
</mxfile>